<svg width="204" height="170" viewBox="0 0 204 170" fill="none" xmlns="http://www.w3.org/2000/svg">
<g clip-path="url(#clip0_280_4963)">
<path d="M56.7966 107.947C85.6278 107.947 109 84.5745 109 55.7434C109 26.9123 85.6278 3.54001 56.7966 3.54001C27.9655 3.54001 4.59326 26.9123 4.59326 55.7434C4.59326 84.5745 27.9655 107.947 56.7966 107.947Z" fill="#E4E4E4"/>
<path d="M56.6556 99.1992C80.7335 99.1992 100.252 79.6802 100.252 55.6023C100.252 31.5244 80.7335 12.0054 56.6556 12.0054C32.5777 12.0054 13.0587 31.5244 13.0587 55.6023C13.0587 79.6802 32.5777 99.1992 56.6556 99.1992Z" fill="#66BB6A"/>
<path d="M53.0084 71.5455C52.9307 71.5455 52.8528 71.5436 52.7749 71.5397C52.0871 71.5064 51.4146 71.3236 50.8035 71.004C50.1924 70.6844 49.6573 70.2355 49.2347 69.6881L42.5635 61.0536C41.7867 60.0459 41.4387 58.7691 41.5958 57.5034C41.7529 56.2377 42.4023 55.0864 43.4016 54.3021L43.6416 54.114C44.6427 53.3321 45.9111 52.9818 47.1685 53.1399C48.4258 53.2981 49.5696 53.9518 50.3488 54.9577C50.7248 55.4444 51.2008 55.8435 51.7443 56.1278C52.2877 56.4121 52.8858 56.5749 53.4975 56.6049C54.1092 56.6349 54.7202 56.5315 55.2885 56.3018C55.8569 56.0721 56.3692 55.7214 56.7904 55.2739L70.3364 40.8793C70.7681 40.4206 71.2853 40.052 71.8585 39.7945C72.4317 39.537 73.0496 39.3957 73.6771 39.3786C74.3045 39.3616 74.9292 39.4691 75.5153 39.6951C76.1015 39.9211 76.6377 40.2611 77.0933 40.6956L77.3144 40.9066C78.2346 41.7842 78.7707 42.9937 78.8049 44.2693C78.8391 45.5448 78.3686 46.7817 77.4968 47.708L56.477 70.043C56.0307 70.5177 55.4929 70.8958 54.8965 71.1541C54.3001 71.4125 53.6577 71.5456 53.0084 71.5455V71.5455Z" fill="white"/>
<path d="M9.46261 161.992C12.2874 167.231 18.2825 169.48 18.2825 169.48C18.2825 169.48 19.6978 163.235 16.873 157.996C14.0483 152.758 8.05317 150.509 8.05317 150.509C8.05317 150.509 6.63786 156.753 9.46261 161.992Z" fill="#2F2E41"/>
<path d="M11.4042 160.269C16.504 163.337 18.4681 169.431 18.4681 169.431C18.4681 169.431 12.1638 170.551 7.06394 167.483C1.96411 164.415 0 158.32 0 158.32C0 158.32 6.30436 157.2 11.4042 160.269Z" fill="#D73526"/>
<path d="M125.743 8.16116H93.9237V8.61573H125.743V8.16116Z" fill="#F2F2F2"/>
<path d="M117.106 8.50211H116.652V12.7068H117.106V8.50211Z" fill="#F2F2F2"/>
<path d="M103.242 8.50211H102.788V12.7068H103.242V8.50211Z" fill="#F2F2F2"/>
<path d="M141.88 29.9802H110.061V30.4348H141.88V29.9802Z" fill="#F2F2F2"/>
<path d="M119.152 25.8891H118.697V30.0938H119.152V25.8891Z" fill="#F2F2F2"/>
<path d="M133.016 25.8891H132.562V30.0938H133.016V25.8891Z" fill="#F2F2F2"/>
<path d="M184.154 40.2079H152.335V40.6624H184.154V40.2079Z" fill="#F2F2F2"/>
<path d="M161.426 36.1168H160.972V40.3215H161.426V36.1168Z" fill="#F2F2F2"/>
<path d="M175.291 36.1168H174.836V40.3215H175.291V36.1168Z" fill="#F2F2F2"/>
<path d="M180.972 145.666H149.153V146.121H180.972V145.666Z" fill="#F2F2F2"/>
<path d="M158.244 141.575H157.79V145.78H158.244V141.575Z" fill="#F2F2F2"/>
<path d="M172.108 141.575H171.654V145.78H172.108V141.575Z" fill="#F2F2F2"/>
<path d="M136.653 127.484H104.833V127.938H136.653V127.484Z" fill="#F2F2F2"/>
<path d="M113.925 123.393H113.47V127.598H113.925V123.393Z" fill="#F2F2F2"/>
<path d="M127.789 123.393H127.334V127.598H127.789V123.393Z" fill="#F2F2F2"/>
<path d="M187.564 110.892H155.744V111.347H187.564V110.892Z" fill="#F2F2F2"/>
<path d="M164.836 106.801H164.381V111.006H164.836V106.801Z" fill="#F2F2F2"/>
<path d="M178.7 106.801H178.245V111.006H178.7V106.801Z" fill="#F2F2F2"/>
<path d="M82.2895 159.593H28.4724V159.206H81.9022V140.428H32.9967L30.6209 135.479L30.97 135.311L33.2403 140.041H82.2895V159.593Z" fill="#2F2E41"/>
<path d="M35.6351 169.079C37.8804 169.079 39.7005 167.259 39.7005 165.014C39.7005 162.769 37.8804 160.948 35.6351 160.948C33.3899 160.948 31.5698 162.769 31.5698 165.014C31.5698 167.259 33.3899 169.079 35.6351 169.079Z" fill="#3F3D56"/>
<path d="M75.7075 169.079C77.9527 169.079 79.7729 167.259 79.7729 165.014C79.7729 162.769 77.9527 160.948 75.7075 160.948C73.4623 160.948 71.6422 162.769 71.6422 165.014C71.6422 167.259 73.4623 169.079 75.7075 169.079Z" fill="#3F3D56"/>
<path d="M122.943 81.1908C124.333 81.1908 125.459 80.064 125.459 78.6741C125.459 77.2842 124.333 76.1575 122.943 76.1575C121.553 76.1575 120.426 77.2842 120.426 78.6741C120.426 80.064 121.553 81.1908 122.943 81.1908Z" fill="#3F3D56"/>
<path d="M88.0454 134.04H27.5548L14.4661 91.2573H101.525L101.446 91.509L88.0454 134.04ZM27.8412 133.653H87.7615L100.997 91.6445H14.9894L27.8412 133.653Z" fill="#2F2E41"/>
<path d="M83.3236 131.814H30.1925L18.6962 93.8707H95.163L95.0934 94.0941L83.3236 131.814Z" fill="#F2F2F2"/>
<path d="M102.61 87.4352L102.235 87.3359L104.79 77.7062H119.652V78.0935H105.088L102.61 87.4352Z" fill="#2F2E41"/>
<path d="M97.1745 104.228H18.6958V104.615H97.1745V104.228Z" fill="#2F2E41"/>
<path d="M92.6802 118.492H23.0597V118.879H92.6802V118.492Z" fill="#2F2E41"/>
<path d="M58.188 91.4509H57.8008V133.846H58.188V91.4509Z" fill="#2F2E41"/>
<path d="M75.5224 91.4387L72.7432 133.833L73.1296 133.858L75.9088 91.4641L75.5224 91.4387Z" fill="#2F2E41"/>
<path d="M40.4744 91.4382L40.088 91.4634L42.8512 133.859L43.2376 133.834L40.4744 91.4382Z" fill="#2F2E41"/>
<path d="M203.644 169.325H0V169.779H203.644V169.325Z" fill="#2F2E41"/>
<path d="M135.326 14.0632C135.326 14.0632 138.648 23.5196 136.604 24.9744C134.559 26.4292 143.504 38.3102 143.504 38.3102L154.238 35.4006L148.36 25.4593C148.36 25.4593 147.593 15.5181 147.593 14.0632C147.593 12.6084 135.326 14.0632 135.326 14.0632Z" fill="#A0616A"/>
<path opacity="0.1" d="M135.326 14.0632C135.326 14.0632 138.648 23.5196 136.604 24.9744C134.559 26.4292 143.504 38.3102 143.504 38.3102L154.238 35.4006L148.36 25.4593C148.36 25.4593 147.593 15.5181 147.593 14.0632C147.593 12.6084 135.326 14.0632 135.326 14.0632Z" fill="black"/>
<path d="M129.749 81.4699C129.749 81.4699 128.779 93.5934 129.749 99.8977C130.719 106.202 132.174 123.66 132.174 123.66C132.174 123.66 132.174 156.636 137.508 157.121C142.842 157.606 146.722 158.09 147.207 156.151C147.692 154.211 144.782 153.241 146.237 152.271C147.692 151.301 148.177 147.907 146.237 144.027C144.297 140.148 146.237 100.868 146.237 100.868L155.451 125.599C155.451 125.599 156.421 145.967 157.391 148.877C158.36 151.786 156.421 157.121 159.815 157.606C163.21 158.09 167.089 155.181 169.029 154.211C170.969 153.241 166.119 153.241 167.089 152.756C168.059 152.271 170.969 150.816 169.999 150.331C169.029 149.846 168.059 126.569 168.059 126.569C168.059 126.569 165.392 76.863 161.997 74.9233C158.603 72.9835 156.421 76.3246 156.421 76.3246L129.749 81.4699Z" fill="#2F2E41"/>
<path d="M138.478 155.181V159.06C138.478 159.06 134.113 169.606 138.478 169.606C142.842 169.606 146.237 170.699 146.237 169.244V156.151L138.478 155.181Z" fill="#2F2E41"/>
<path d="M167.089 155.174V159.053C167.089 159.053 171.454 169.599 167.089 169.599C162.725 169.599 159.33 170.692 159.33 169.237V156.144L167.089 155.174Z" fill="#2F2E41"/>
<path d="M142.115 21.0949C146.936 21.0949 150.844 17.1868 150.844 12.366C150.844 7.54512 146.936 3.63705 142.115 3.63705C137.294 3.63705 133.386 7.54512 133.386 12.366C133.386 17.1868 137.294 21.0949 142.115 21.0949Z" fill="#A0616A"/>
<path d="M139.448 28.6115C139.448 28.6115 141.872 35.8856 145.752 34.4308L149.632 32.9759L156.421 79.5302C156.421 79.5302 151.086 87.2892 143.327 82.4398C135.568 77.5904 139.448 28.6115 139.448 28.6115Z" fill="#D73526"/>
<path d="M146.237 27.1566L148.419 22.5497C148.419 22.5497 161.27 28.6115 163.21 30.5512C165.15 32.491 165.15 35.4006 165.15 35.4006L161.755 47.5241C161.755 47.5241 162.725 74.1958 162.725 75.1657C162.725 76.1356 166.119 81.4699 163.695 79.5302C161.27 77.5904 160.785 75.6507 158.845 78.5603C156.906 81.47 152.541 84.8645 152.541 84.8645L146.237 27.1566Z" fill="black"/>
<path d="M142.301 0.0295173C140.366 -0.0396604 138.295 -0.0738801 136.663 0.968919C135.913 1.49225 135.254 2.13679 134.715 2.87616C133.126 4.88498 131.753 7.41253 132.343 9.90492L133.029 9.63755C133.029 10.3028 132.881 10.9598 132.596 11.5609C132.692 11.2802 133.016 11.734 132.929 12.018L132.174 14.4955C133.415 14.0404 134.96 14.9618 135.149 16.2705C135.235 13.3928 135.533 10.0931 137.868 8.40807C139.045 7.55834 140.535 7.29894 141.968 7.06859C143.291 6.85608 144.677 6.65344 145.944 7.08878C147.21 7.52413 148.289 8.81953 148.002 10.1277C148.586 9.92656 149.239 10.3336 149.528 10.8797C149.816 11.4259 149.831 12.0701 149.84 12.6878C150.463 13.1277 151.171 12.2541 151.425 11.5352C152.02 9.84777 152.55 8.05156 152.229 6.29112C151.908 4.53069 150.474 2.84833 148.684 2.84236C148.901 2.60379 149.017 2.29009 149.007 1.96761L147.532 1.84299C147.907 1.78997 148.251 1.60842 148.507 1.32944C147.914 1.98104 143.259 0.0637481 142.301 0.0295173Z" fill="#2F2E41"/>
<path d="M141.873 25.7018C141.873 25.7018 137.925 21.8333 136.504 22.0703C135.083 22.3072 133.144 25.7018 133.144 25.7018C133.144 25.7018 121.505 29.5813 121.99 33.4609C122.475 37.3404 127.809 56.253 127.809 56.253C127.809 56.253 132.174 79.0452 128.294 81.4699C124.415 83.8946 146.722 90.1988 147.207 87.2892C147.692 84.3796 148.662 55.2832 147.207 50.9187C145.752 46.5542 141.873 25.7018 141.873 25.7018Z" fill="black"/>
<path d="M177.359 21.378L186.686 11.4036C186.686 11.4036 186.855 -0.274024 188.49 0.877375C190.125 2.02878 189.29 4.03052 189.29 4.03052C189.29 4.03052 194.078 4.38176 193.877 7.11764C193.677 9.85352 182.897 25.5663 182.897 25.5663L177.359 21.378Z" fill="#A0616A"/>
<path d="M151.849 31.7712L156.768 41.31C156.768 41.31 173.453 32.4376 175.238 31.5371C177.024 30.6366 184.632 25.3497 184.315 24.9827C183.998 24.6156 178.5 19.5 179 19.5L164 27.5L151.849 31.7712Z" fill="black"/>
<path d="M158.642 79.0939H135.687C133.447 68.789 133.26 58.8326 135.687 49.3201H158.642C154.938 58.6615 154.706 68.5497 158.642 79.0939Z" fill="#F2F2F2"/>
<path d="M146 63C148.761 63 151 60.7614 151 58C151 55.2386 148.761 53 146 53C143.239 53 141 55.2386 141 58C141 60.7614 143.239 63 146 63Z" fill="#66BB6A"/>
<path d="M145.537 60C145.527 60 145.516 59.9998 145.506 59.9993C145.413 59.9951 145.323 59.9724 145.241 59.9327C145.159 59.8929 145.087 59.8371 145.03 59.7691L144.135 58.6954C144.031 58.5701 143.984 58.4113 144.005 58.2539C144.026 58.0966 144.113 57.9534 144.247 57.8559L144.28 57.8325C144.414 57.7353 144.584 57.6917 144.753 57.7114C144.922 57.731 145.075 57.8123 145.18 57.9374C145.23 57.9979 145.294 58.0475 145.367 58.0829C145.44 58.1182 145.52 58.1385 145.603 58.1422C145.685 58.1459 145.767 58.1331 145.843 58.1045C145.919 58.076 145.988 58.0324 146.045 57.9767L147.863 56.1868C147.921 56.1298 147.99 56.0839 148.067 56.0519C148.144 56.0199 148.227 56.0023 148.311 56.0002C148.396 55.9981 148.48 56.0115 148.558 56.0396C148.637 56.0677 148.709 56.1099 148.77 56.164L148.8 56.1902C148.923 56.2993 148.995 56.4497 149 56.6083C149.004 56.7669 148.941 56.9208 148.824 57.0359L146.003 59.8132C145.943 59.8722 145.87 59.9192 145.79 59.9513C145.71 59.9835 145.624 60 145.537 60V60Z" fill="white"/>
<path d="M126.354 66.4368L133.144 69.3465C133.144 69.3465 146.237 71.2862 146.237 65.9519C146.237 60.6175 133.144 63.5272 133.144 63.5272L128.779 62.1316L126.354 66.4368Z" fill="#A0616A"/>
<path d="M127.809 30.5512L121.99 32.006L117.625 57.7079C117.625 57.7079 116.171 64.497 118.595 64.982C121.02 65.4669 127.809 69.3464 127.809 69.3464C127.809 69.3464 128.779 62.0723 130.719 62.0723L125.869 58.1928L128.779 41.2199L127.809 30.5512Z" fill="black"/>
</g>
<defs>
<clipPath id="clip0_280_4963">
<rect width="203.644" height="170" fill="white"/>
</clipPath>
</defs>
</svg>
